<svg width="143" height="33" viewBox="0 0 143 33" fill="none" xmlns="http://www.w3.org/2000/svg">
<path d="M5.24002 18.84C3.69336 19.0533 2.41336 19.16 1.40002 19.16C1.05336 19.16 0.880024 19.0267 0.880024 18.76C0.880024 18.1467 1.29336 17.5067 2.12002 16.84C2.97336 16.1467 4.34669 15.5467 6.24002 15.04C7.09336 12 8.06669 9.21333 9.16003 6.68C6.49336 6.81333 4.30669 7.69333 2.60002 9.32C2.17336 9.74667 1.82669 10.08 1.56002 10.32C1.29336 10.56 1.05336 10.68 0.840025 10.68C0.653358 10.68 0.466691 10.52 0.280024 10.2C0.0933578 9.88 2.44379e-05 9.45333 2.44379e-05 8.92C0.0266911 6.86667 1.41336 5.2 4.16002 3.92C6.90669 2.64 10.2934 2.01333 14.32 2.04L26.32 2.24C27.04 2.24 27.4 2.52 27.4 3.08C27.4 3.24 27.2934 3.53333 27.08 3.96C26.8667 4.36 26.68 4.8 26.52 5.28C26.1734 6.24 25.4267 6.72 24.28 6.72H23L17.68 6.68H14.6C14.3867 8.2 13.7467 10.68 12.68 14.12L20 14.24C20.4267 14.24 20.64 14.4933 20.64 15C20.64 15.16 20.5734 15.44 20.44 15.84C20.3067 16.24 20.1867 16.6533 20.08 17.08C19.8667 17.96 19.4134 18.4 18.72 18.4L12.64 18.12H12.12C11.96 18.12 11.7734 18.1333 11.56 18.16C10.1734 23.2533 9.48002 27.28 9.48002 30.24C9.48002 31.8133 7.94669 32.6 4.88002 32.6C4.21336 32.6 3.81336 32.2667 3.68002 31.6C3.57336 30.9067 3.52002 30 3.52002 28.88C3.52002 26.48 4.09336 23.1333 5.24002 18.84ZM31.131 27.64C33.211 27.64 35.2243 26.8133 37.171 25.16C37.891 24.5467 38.4776 23.9867 38.931 23.48C39.3843 22.9467 39.731 22.68 39.971 22.68C40.3443 22.68 40.531 23.0533 40.531 23.8C40.531 24.5467 40.331 25.3867 39.931 26.32C39.531 27.2267 38.8643 28.12 37.931 29C35.6376 31.16 32.491 32.24 28.491 32.24C25.3176 32.24 23.1576 31.0933 22.011 28.8C21.611 28 21.411 26.8533 21.411 25.36C21.411 23.8667 21.7043 22.32 22.291 20.72C22.8776 19.0933 23.651 17.6933 24.611 16.52C25.5976 15.3467 26.731 14.44 28.011 13.8C29.291 13.1333 30.651 12.8 32.091 12.8C33.5576 12.8 34.6776 13.16 35.451 13.88C36.251 14.6 36.651 15.5333 36.651 16.68C36.651 17.8267 36.3576 18.7733 35.771 19.52C35.211 20.24 34.4776 20.8533 33.571 21.36C32.6643 21.84 31.651 22.28 30.531 22.68C29.4376 23.0533 28.3576 23.48 27.291 23.96V24.96C27.3176 25.92 27.7176 26.6 28.491 27C29.2643 27.4 30.1443 27.6133 31.131 27.64ZM30.451 16.36C29.0643 16.36 28.1043 17.9733 27.571 21.2C28.131 20.8267 28.651 20.4933 29.131 20.2C29.6376 19.9067 30.0776 19.6267 30.451 19.36C31.251 18.7733 31.6643 18.1067 31.691 17.36C31.691 16.6933 31.2776 16.36 30.451 16.36ZM47.6497 12.64C49.4364 12.6133 50.7697 12.9467 51.6497 13.64C52.5297 14.3067 52.9697 15.28 52.9697 16.56C52.9697 17.8133 52.583 18.8933 51.8097 19.8C51.063 20.68 50.143 21.3067 49.0497 21.68C49.823 22.48 50.5164 23.2933 51.1297 24.12C51.7697 24.9467 52.0897 25.8133 52.0897 26.72C52.0897 28.5067 51.383 29.8933 49.9697 30.88C48.5564 31.84 46.583 32.32 44.0497 32.32C41.543 32.32 39.663 31.8267 38.4097 30.84C37.1564 29.8267 36.5297 28.6933 36.5297 27.44C36.5297 26.16 36.8364 25 37.4497 23.96C38.0897 22.92 38.7697 22.4 39.4897 22.4C39.9164 22.4 40.223 22.56 40.4097 22.88C40.5964 23.1733 40.943 24.0533 41.4497 25.52C41.6364 26.0533 41.943 26.56 42.3697 27.04C43.3564 28.1333 44.9164 28.68 47.0497 28.68C46.7297 27.6667 46.2097 26.8 45.4897 26.08C44.7964 25.3333 44.103 24.6133 43.4097 23.92C42.7164 23.2267 42.103 22.4933 41.5697 21.72C41.0364 20.92 40.7697 19.9867 40.7697 18.92C40.7697 17 41.4897 15.44 42.9297 14.24C44.2897 13.1733 45.863 12.64 47.6497 12.64ZM47.4897 20.04C48.5564 18.8933 49.0897 17.9733 49.0897 17.28C49.0897 16.96 48.9697 16.68 48.7297 16.44C48.5164 16.1733 48.1964 16.04 47.7697 16.04C47.343 16.04 46.9297 16.0933 46.5297 16.2C46.1564 16.3067 45.8497 16.3867 45.6097 16.44C45.6097 17.4533 46.2364 18.6533 47.4897 20.04ZM56.3444 29.84C56.0511 29.12 55.8377 28.2933 55.7044 27.36C55.5711 26.4 55.5044 25.0667 55.5044 23.36C55.5044 21.6533 55.8244 19.3467 56.4644 16.44H54.6644C54.3444 16.44 54.1844 16.3067 54.1844 16.04C54.1844 15.4 54.2377 14.88 54.3444 14.48C54.4777 14.0533 54.7711 13.5733 55.2244 13.04H56.1844C56.5577 13.04 56.9577 13.0267 57.3844 13C58.6644 8.89333 59.9711 6.84 61.3044 6.84C62.3711 6.86667 63.1177 7.54667 63.5444 8.88C63.6511 9.25333 63.7711 9.65333 63.9044 10.08L62.2644 12.96C64.1311 13.0133 65.3044 13.04 65.7844 13.04C66.2911 13.04 66.5577 13.0933 66.5844 13.2C66.6377 13.28 66.6644 13.4133 66.6644 13.6C66.6644 14.08 66.5444 14.68 66.3044 15.4C66.0911 16.12 65.8377 16.4667 65.5444 16.44L61.5444 16.24C60.9844 19.4933 60.7044 22.1867 60.7044 24.32C60.7044 26.4533 61.0111 27.52 61.6244 27.52C62.1311 27.52 63.0511 27.1067 64.3844 26.28C65.7177 25.4267 66.6777 24.6133 67.2644 23.84C67.8511 23.0667 68.3311 22.68 68.7044 22.68C69.0777 22.68 69.2644 23.1333 69.2644 24.04C69.2644 24.9467 68.9444 25.88 68.3044 26.84C67.6644 27.7733 66.8511 28.64 65.8644 29.44C64.9044 30.2133 63.8244 30.8533 62.6244 31.36C61.4511 31.8667 60.4244 32.12 59.5444 32.12C58.6644 32.12 57.9844 31.92 57.5044 31.52C57.0511 31.0933 56.6644 30.5333 56.3444 29.84ZM72.0797 32.12C69.413 32.12 68.0797 29.6267 68.0797 24.64C68.0797 21.92 68.413 19.4533 69.0797 17.24C70.1197 13.8267 71.293 12.12 72.5997 12.12C73.373 12.12 73.9864 12.64 74.4397 13.68C74.813 14.48 74.9864 15.2667 74.9597 16.04C74.9597 17.1067 74.6397 18.9867 73.9997 21.68C73.3864 24.0267 73.0797 25.48 73.0797 26.04C73.0797 26.6 73.213 26.9867 73.4797 27.2C73.773 27.4133 74.1064 27.52 74.4797 27.52C74.8797 27.52 75.373 27.2667 75.9597 26.76C76.5464 26.2533 77.133 25.7067 77.7197 25.12C78.3064 24.5067 78.8397 23.9467 79.3197 23.44C79.8264 22.9333 80.173 22.68 80.3597 22.68C80.733 22.68 80.9197 23.1333 80.9197 24.04C80.9197 25.9067 79.973 27.7333 78.0797 29.52C76.213 31.28 74.213 32.1467 72.0797 32.12ZM73.7197 8.88C72.9997 7.81333 72.6397 6.66667 72.6397 5.44C72.6397 4.21333 72.8264 3.2 73.1997 2.4C73.5997 1.57333 73.973 0.973332 74.3197 0.599999C74.6664 0.199999 75.0664 -4.76837e-07 75.5197 -4.76837e-07C76.2664 -4.76837e-07 76.9464 0.559999 77.5597 1.68C78.173 2.77333 78.4797 3.69333 78.4797 4.44C78.4797 5.82667 77.9864 6.92 76.9997 7.72C76.0397 8.49333 74.9464 8.88 73.7197 8.88ZM85.2403 14.4C85.2403 16.1867 84.9203 18.2133 84.2803 20.48C84.3337 21.3333 84.3603 22.16 84.3603 22.96C84.3603 23.76 84.4137 24.4533 84.5203 25.04C84.9203 26.1067 85.427 26.76 86.0403 27C86.5737 27 87.1603 26.5467 87.8003 25.64C88.4403 24.7067 89.0937 23.6 89.7603 22.32C89.4403 21.0933 89.2803 19.9333 89.2803 18.84C89.2803 16.92 89.5737 15.52 90.1603 14.64C90.8803 13.52 91.9737 12.96 93.4403 12.96C94.907 12.96 95.8803 13.52 96.3603 14.64C96.547 15.0667 96.6403 15.5467 96.6403 16.08C96.6403 17.04 96.4003 18.0267 95.9203 19.04C95.4403 20.0267 94.667 21.3333 93.6003 22.96C94.0803 24.3733 94.8003 25.08 95.7603 25.08C96.9337 25.0533 97.947 24.64 98.8003 23.84C99.1203 23.52 99.387 23.24 99.6003 23C99.8403 22.76 100.08 22.64 100.32 22.64C100.694 22.64 100.88 23.08 100.88 23.96C100.88 25.6133 100.4 26.8267 99.4403 27.6C98.507 28.3467 97.3203 28.72 95.8803 28.72C93.987 28.72 92.4803 27.8933 91.3603 26.24C88.2403 30.2933 85.627 32.32 83.5203 32.32C82.6937 32.32 81.8803 31.1467 81.0803 28.8C80.2803 26.4533 79.667 23.28 79.2403 19.28C78.9203 16.7467 79.107 14.9333 79.8003 13.84C80.387 12.9867 81.5337 12.56 83.2403 12.56C83.8803 12.56 84.3737 12.76 84.7203 13.16C85.067 13.5333 85.2403 13.9467 85.2403 14.4ZM103.877 32.12C101.21 32.12 99.8766 29.6267 99.8766 24.64C99.8766 21.92 100.21 19.4533 100.877 17.24C101.917 13.8267 103.09 12.12 104.397 12.12C105.17 12.12 105.783 12.64 106.237 13.68C106.61 14.48 106.783 15.2667 106.757 16.04C106.757 17.1067 106.437 18.9867 105.797 21.68C105.183 24.0267 104.877 25.48 104.877 26.04C104.877 26.6 105.01 26.9867 105.277 27.2C105.57 27.4133 105.903 27.52 106.277 27.52C106.677 27.52 107.17 27.2667 107.757 26.76C108.343 26.2533 108.93 25.7067 109.517 25.12C110.103 24.5067 110.637 23.9467 111.117 23.44C111.623 22.9333 111.97 22.68 112.157 22.68C112.53 22.68 112.717 23.1333 112.717 24.04C112.717 25.9067 111.77 27.7333 109.877 29.52C108.01 31.28 106.01 32.1467 103.877 32.12ZM105.517 8.88C104.797 7.81333 104.437 6.66667 104.437 5.44C104.437 4.21333 104.623 3.2 104.997 2.4C105.397 1.57333 105.77 0.973332 106.117 0.599999C106.463 0.199999 106.863 -4.76837e-07 107.317 -4.76837e-07C108.063 -4.76837e-07 108.743 0.559999 109.357 1.68C109.97 2.77333 110.277 3.69333 110.277 4.44C110.277 5.82667 109.783 6.92 108.797 7.72C107.837 8.49333 106.743 8.88 105.517 8.88ZM112.477 29.84C112.184 29.12 111.971 28.2933 111.837 27.36C111.704 26.4 111.637 25.0667 111.637 23.36C111.637 21.6533 111.957 19.3467 112.597 16.44H110.797C110.477 16.44 110.317 16.3067 110.317 16.04C110.317 15.4 110.371 14.88 110.477 14.48C110.611 14.0533 110.904 13.5733 111.357 13.04H112.317C112.691 13.04 113.091 13.0267 113.517 13C114.797 8.89333 116.104 6.84 117.437 6.84C118.504 6.86667 119.251 7.54667 119.677 8.88C119.784 9.25333 119.904 9.65333 120.037 10.08L118.397 12.96C120.264 13.0133 121.437 13.04 121.917 13.04C122.424 13.04 122.691 13.0933 122.717 13.2C122.771 13.28 122.797 13.4133 122.797 13.6C122.797 14.08 122.677 14.68 122.437 15.4C122.224 16.12 121.971 16.4667 121.677 16.44L117.677 16.24C117.117 19.4933 116.837 22.1867 116.837 24.32C116.837 26.4533 117.144 27.52 117.757 27.52C118.264 27.52 119.184 27.1067 120.517 26.28C121.851 25.4267 122.811 24.6133 123.397 23.84C123.984 23.0667 124.464 22.68 124.837 22.68C125.211 22.68 125.397 23.1333 125.397 24.04C125.397 24.9467 125.077 25.88 124.437 26.84C123.797 27.7733 122.984 28.64 121.997 29.44C121.037 30.2133 119.957 30.8533 118.757 31.36C117.584 31.8667 116.557 32.12 115.677 32.12C114.797 32.12 114.117 31.92 113.637 31.52C113.184 31.0933 112.797 30.5333 112.477 29.84ZM132.733 27.64C134.813 27.64 136.826 26.8133 138.773 25.16C139.493 24.5467 140.079 23.9867 140.533 23.48C140.986 22.9467 141.333 22.68 141.573 22.68C141.946 22.68 142.133 23.0533 142.133 23.8C142.133 24.5467 141.933 25.3867 141.533 26.32C141.133 27.2267 140.466 28.12 139.533 29C137.239 31.16 134.093 32.24 130.093 32.24C126.919 32.24 124.759 31.0933 123.613 28.8C123.213 28 123.013 26.8533 123.013 25.36C123.013 23.8667 123.306 22.32 123.893 20.72C124.479 19.0933 125.253 17.6933 126.213 16.52C127.199 15.3467 128.333 14.44 129.613 13.8C130.893 13.1333 132.253 12.8 133.693 12.8C135.159 12.8 136.279 13.16 137.053 13.88C137.853 14.6 138.253 15.5333 138.253 16.68C138.253 17.8267 137.959 18.7733 137.373 19.52C136.813 20.24 136.079 20.8533 135.173 21.36C134.266 21.84 133.253 22.28 132.133 22.68C131.039 23.0533 129.959 23.48 128.893 23.96V24.96C128.919 25.92 129.319 26.6 130.093 27C130.866 27.4 131.746 27.6133 132.733 27.64ZM132.053 16.36C130.666 16.36 129.706 17.9733 129.173 21.2C129.733 20.8267 130.253 20.4933 130.733 20.2C131.239 19.9067 131.679 19.6267 132.053 19.36C132.853 18.7733 133.266 18.1067 133.293 17.36C133.293 16.6933 132.879 16.36 132.053 16.36Z" fill="#FF598B"/>
</svg>
